<svg width="772" height="873" viewBox="0 0 772 873" fill="none" xmlns="http://www.w3.org/2000/svg">
<rect width="245.951" height="268.413" transform="matrix(0.866025 0.5 0 1 437 126.52)" fill="#C8D3E7"/>
<rect width="270.869" height="250.57" transform="matrix(0 1 -0.866025 0.5 389 225.657)" fill="#E5F3FC"/>
<rect width="350.559" height="319.852" transform="matrix(0 1 -0.866025 0.5 772 265.968)" fill="#B1B0D8"/>
<rect width="316.908" height="322.373" transform="matrix(0.866025 -0.5 0.866025 0.5 112.926 158.454)" fill="#6A8DC7"/>
<rect width="325.626" height="350" transform="matrix(0.866025 0.5 0 1 0 263.828)" fill="#3E5172"/>
<path d="M172 622V363L282 426.734V558.5L172 622Z" fill="#53678C"/>
<path d="M650 336.5L495 426V428.5L650 518V336.5Z" fill="#9997C9"/>
<path d="M389 225.688L309.15 271.75L389 317.844V225.688Z" fill="#83A5D5"/>
<path d="M437 126.5V293.5L581.5 210L437 126.5Z" fill="#5780C0"/>
</svg>
